<svg id="Capa_1" enable-background="new 0 0 512 512" height="512" viewBox="0 0 512 512" width="512" xmlns="http://www.w3.org/2000/svg"><path d="m151 256v30c0 5.199 2.691 10.027 7.114 12.76s9.945 2.982 14.594.656l38.292-19.145v30.516l-25.606 25.607c-5.858 5.858-5.858 15.355 0 21.213l60 60c2.812 2.813 6.627 4.393 10.606 4.393h30c5.682 0 10.875-3.21 13.417-8.292l25.853-51.708h80.73c5.717 0 10.937-3.25 13.46-8.38l30-61c1.013-2.06 1.54-4.324 1.54-6.62v-90c0-3.978-1.581-7.794-4.394-10.607l-22.355-22.355 25.165-50.33c2.395-4.79 2.055-10.494-.894-14.965l-60-91c-2.775-4.21-7.48-6.743-12.522-6.743h-30c-5.717 0-10.937 3.25-13.46 8.38l-25.879 52.62h-80.661c-2.329 0-4.625.542-6.708 1.584l-60 30c-5.082 2.541-8.292 7.734-8.292 13.416v60c0 3.978 1.581 7.794 4.394 10.607l22.354 22.355-25.164 50.331c-1.042 2.082-1.584 4.379-1.584 6.707zm30-140.729 48.541-24.271h86.459c5.717 0 10.937-3.25 13.46-8.38l25.879-52.62h12.584l50.791 77.032-26.13 52.26c-2.887 5.775-1.755 12.749 2.81 17.315l25.606 25.606v80.298l-24.339 49.489h-80.661c-5.682 0-10.875 3.21-13.417 8.292l-25.854 51.708h-14.516l-45-45 19.393-19.393c2.813-2.814 4.394-6.629 4.394-10.607v-61c0-5.199-2.692-10.027-7.114-12.76-4.423-2.733-9.945-2.982-14.594-.656l-38.292 19.145v-2.188l28.416-56.834c2.887-5.775 1.755-12.749-2.81-17.315l-25.606-25.605z"/><path d="m76 482h23.787l25.607 25.607c2.812 2.813 6.628 4.393 10.606 4.393h60c8.284 0 15-6.716 15-15v-60c0-3.978-1.581-7.793-4.394-10.607l-30-30c-2.813-2.813-6.628-4.393-10.606-4.393h-60c-3.978 0-7.793 1.58-10.606 4.393l-30 30c-2.814 2.814-4.394 6.629-4.394 10.607v30c0 8.284 6.716 15 15 15zm15-38.787 21.213-21.213h47.573l21.214 21.213v38.787h-38.787l-25.607-25.607c-2.813-2.813-6.628-4.393-10.606-4.393h-15z"/></svg>